<svg width="46" height="55" viewBox="0 0 46 55" fill="none" xmlns="http://www.w3.org/2000/svg">
<path d="M14.8567 42.5048C14.8567 42.5048 12.4606 43.7916 16.5247 44.1603C21.4065 44.711 24.0237 44.62 29.4398 43.7007C29.4398 43.7007 30.8976 44.5266 32.8774 45.173C20.6905 49.7697 5.27615 44.8977 14.8581 42.5072L14.8567 42.5048ZM13.2945 36.5292C13.2945 36.5292 10.6909 38.2769 14.7523 38.6443C20.064 39.104 24.2447 39.195 31.4183 37.9094C31.4183 37.9094 32.354 38.8287 33.9175 39.2884C19.2314 43.15 2.77422 39.6547 13.2945 36.5292ZM42.043 47.0105C42.043 47.0105 43.814 48.2973 40.0632 49.3088C33.0849 51.1475 10.7953 51.6993 4.54523 49.3088C2.35791 48.4829 6.52508 47.2739 7.87843 47.1027C9.23449 46.8274 9.96134 46.8274 9.96134 46.8274C7.56653 45.355 -5.97509 49.8619 3.08611 51.1367C27.9793 54.7219 48.4979 49.5734 42.0403 46.9997L42.043 47.0105ZM16.0012 30.277C16.0012 30.277 4.64829 32.6675 11.9385 33.4946C15.0628 33.8621 21.2085 33.77 26.9365 33.4025C31.623 33.035 36.311 32.2988 36.311 32.2988C36.311 32.2988 34.643 32.9428 33.4985 33.5856C21.9367 36.2514 -0.248442 35.058 6.10606 32.2988C11.5222 30.0005 16.0012 30.2638 16.0012 30.2638V30.277ZM36.3123 40.2987C47.9771 34.9658 42.561 29.8173 38.8115 30.4613C37.8758 30.6457 37.4555 30.8288 37.4555 30.8288C37.4555 30.8288 37.7674 30.2782 38.4969 30.0938C45.8915 27.7955 51.7253 36.9888 36.1008 40.5752C36.1008 40.5752 36.2052 40.483 36.3096 40.2999L36.3123 40.2987ZM17.1485 54.8248C28.397 55.4688 45.585 54.4573 46 49.7685C46 49.7685 45.1674 51.6072 36.73 52.9862C27.148 54.5495 15.2744 54.3652 8.29338 53.3537C8.29338 53.3537 9.75115 54.4561 17.1485 54.8248Z" fill="#4E7896"/>
<path d="M28.9353 0C28.9353 0 35.4384 5.75375 22.7463 14.4272C12.5724 21.4577 20.4247 25.4758 22.7463 30.0408C16.7676 25.3843 12.4673 21.2758 15.4034 17.4396C19.7051 11.7785 31.5573 9.03957 28.9353 0ZM25.5786 26.2057C28.6198 29.2193 24.7387 31.9595 24.7387 31.9595C24.7387 31.9595 32.5009 28.4882 28.9339 24.1967C25.6837 20.0882 23.1655 18.0791 36.7999 11.2305C36.7999 11.2305 15.2968 15.887 25.5772 26.2045L25.5786 26.2057Z" fill="#F58219"/>
</svg>
