<svg width="29" height="68" viewBox="0 0 29 68" fill="none" xmlns="http://www.w3.org/2000/svg">
<path d="M14.3011 0.18335L16.0222 3.59297C16.3968 4.20802 16.833 4.77899 17.3232 5.29612C18.7649 6.81465 20.137 8.40637 21.3654 10.1112C24.2834 14.1478 26.2524 18.6302 27.6593 23.4836C28.5025 26.4474 28.9604 29.4845 28.9951 32.5581C29.1372 41.7442 26.1466 49.6329 20.0991 56.1893C19.1192 57.2286 18.061 58.1826 16.9348 59.0418C16.3348 59.0418 16.0553 58.5428 15.809 58.1154C15.3353 57.2837 15.07 56.374 14.9295 55.4492C14.7179 54.3382 14.5774 53.2271 14.6484 52.0778V51.5589C14.6137 51.4475 14.0863 0.444478 14.2963 0.185014L14.3011 0.18335Z" fill="#599636"/>
<path d="M14.3012 0.0736165C14.2301 -0.0760743 14.1591 0.0370259 14.0896 0.110208C14.1243 0.850346 13.878 1.5173 13.4896 2.14767C13.068 2.77969 12.5043 3.2587 11.9422 3.77763C8.81262 6.63007 6.35256 10.0746 4.38199 13.9267C1.77982 19.1126 0.409257 24.6678 0.0239844 30.5207C-0.149704 32.633 0.655579 40.0777 1.29033 42.2249C3.01143 47.9298 6.10624 52.7066 10.1327 56.8547C11.1179 57.8526 12.1727 58.7807 13.2622 59.6688C13.578 59.6688 13.6143 59.3728 13.6838 59.1499C13.8223 58.6769 13.9279 58.1938 13.9996 57.7046C14.3154 55.8534 14.4922 54.0006 14.7022 52.1494L14.3154 0.0736165H14.3012Z" fill="#6CAC48"/>
<path d="M16.0274 61.3005C16.0985 60.449 16.5011 59.7454 16.9069 59.0419C16.4853 58.8589 16.168 58.4863 15.9216 58.0772C15.7101 57.7063 15.5348 57.2456 15.3943 56.8547C14.9016 55.2996 14.7942 53.6696 14.6553 52.0762V51.1116C14.4816 51.2613 14.4437 52.5187 14.4437 52.7049C14.3379 54.4081 14.1279 56.0763 13.8121 57.7046C13.7063 58.3699 13.6384 59.0385 13.25 59.6306C13.25 59.7055 13.25 59.7803 13.2847 59.8901C13.9163 61.8527 14.0932 63.8536 14.2006 65.891V66.6312C14.2006 67.5194 14.1658 67.3347 14.8685 67.6291C15.1495 67.7406 15.4685 67.7788 15.748 68C15.9595 68 15.9943 67.8171 15.9943 67.6674L15.8885 66.4449V63.0353C15.8537 62.4432 15.9595 61.8494 16.0306 61.2939L16.0274 61.3005Z" fill="#C2BFBF"/>
</svg>
