<svg width="54" height="48" viewBox="0 0 54 48" fill="none" xmlns="http://www.w3.org/2000/svg">
<path fill-rule="evenodd" clip-rule="evenodd" d="M49.7395 37.124C46.8021 37.0569 44.5233 37.3238 42.6133 38.0558C42.0633 38.257 41.1808 38.257 41.1083 38.8876C41.4022 39.1522 41.4376 39.5853 41.6953 39.952C42.1358 40.6177 42.908 41.5144 43.6053 41.9795C44.3775 42.5124 45.149 43.0439 45.9558 43.5098C47.3883 44.3073 49.0044 44.7732 50.3998 45.5715C51.2083 46.0374 52.0159 46.6359 52.8244 47.1353C53.236 47.4015 53.4855 47.8345 54 48V47.8994C53.7431 47.6012 53.669 47.1689 53.413 46.835C53.045 46.5033 52.6778 46.2029 52.3098 45.8712C51.2453 44.5742 49.9223 43.4427 48.4898 42.5124C47.3142 41.7805 44.7439 40.7831 44.2664 39.5532L44.194 39.4862C45.0008 39.4191 45.9558 39.153 46.728 38.9532C47.9777 38.655 49.1155 38.7206 50.3998 38.4217C50.9884 38.2876 51.5754 38.1221 52.1641 37.9559V37.6577C51.503 37.0592 51.0255 36.2608 50.3282 35.6958C48.4552 34.2326 46.397 32.8022 44.2664 31.6051C43.1278 30.9403 41.6583 30.5072 40.4464 29.9429C40.0043 29.7432 39.2708 29.6433 39.0139 29.3108C38.3512 28.5803 37.9848 27.6151 37.5073 26.7497C36.4428 24.9205 35.4137 22.8923 34.4958 20.9632C33.8347 19.6662 33.4296 18.3693 32.6228 17.1722C28.839 11.5184 24.7243 8.0933 18.4065 4.73382C17.0481 4.03539 15.432 3.735 13.7138 3.36976L10.9591 3.23559C10.3705 3.00303 9.78348 2.37094 9.26893 2.07129C7.17534 0.874194 1.77547 -1.71976 0.231831 1.70605C-0.760217 3.86768 1.70137 5.99577 2.537 7.09373C3.16269 7.8585 3.96951 8.72315 4.41161 9.58781C4.65859 10.1528 4.74091 10.7521 4.9986 11.3507C5.58559 12.8139 6.13719 14.444 6.9086 15.8081C7.32024 16.5065 7.75246 17.2392 8.26701 17.8706C8.56092 18.2358 9.07545 18.4028 9.18495 19.0013C8.6704 19.667 8.63501 20.6636 8.3411 21.4962C7.01809 25.2544 7.53264 29.9101 9.4056 32.6696C9.99424 33.5007 11.3815 35.3306 13.2635 34.6314C14.9166 34.0329 14.5478 32.1373 15.0253 30.4744C15.1364 30.0756 15.0623 29.8095 15.2821 29.5426V29.6097L16.7887 32.3699C17.9273 33.9993 19.9114 35.6958 21.5637 36.8273C22.4446 37.4259 23.1428 38.4575 24.2443 38.8228V38.7221H24.1719C23.9512 38.424 23.6203 38.2898 23.3264 38.0572C22.6653 37.4587 21.9309 36.7267 21.4164 36.0618C19.8744 34.1998 18.516 32.1374 17.3033 30.0093C16.7146 28.9784 16.2001 27.8476 15.7242 26.8168C15.502 26.4172 15.502 25.8179 15.1356 25.6197C14.584 26.3501 13.7772 26.9837 13.3713 27.8812C12.6732 29.3108 12.6007 31.0737 12.3439 32.9029C12.1957 32.9364 12.2615 32.9029 12.1957 32.97C11.0217 32.7046 10.6166 31.6059 10.1762 30.6756C9.07464 28.3142 8.89022 24.5232 9.84522 21.7958C10.1021 21.0974 11.2053 18.9022 10.7648 18.2373C10.5425 17.6052 9.80982 17.24 9.40477 16.7406C8.92727 16.1085 8.41436 15.3109 8.08341 14.6125C7.2025 12.749 6.76205 10.688 5.80623 8.82527C5.36413 7.96062 4.59355 7.06242 3.96868 6.26486C3.27055 5.36666 2.50078 4.73457 1.94918 3.6709C1.76559 3.30566 1.50873 2.70636 1.80264 2.30683C1.87508 2.04073 2.02328 1.94159 2.31555 1.87451C2.79305 1.50927 4.15309 1.97439 4.63059 2.17266C5.989 2.67207 7.12758 3.1372 8.26618 3.83489C8.78072 4.16733 9.33233 4.79942 9.99342 4.96639H10.7656C11.9413 5.19895 13.2626 5.03347 14.3634 5.33163C16.3104 5.89812 18.073 6.72849 19.6537 7.62743C24.465 10.3876 28.4331 14.3121 31.1137 19.0021C31.5542 19.7669 31.7378 20.4653 32.1428 21.2636C32.9151 22.8938 33.8701 24.556 34.6398 26.1534C35.4121 27.7164 36.1464 29.3138 37.248 30.6108C37.7996 31.3092 40.0027 31.6745 40.9939 32.0405C41.7291 32.3386 42.8668 32.6069 43.5296 32.9722C44.7777 33.6706 46.0266 34.4689 47.2014 35.2337C47.7884 35.6317 49.6259 36.4636 49.7354 37.127L49.7395 37.124ZM12.2805 8.22374C11.773 8.21968 11.2671 8.27556 10.7755 8.38997V8.45705H10.848C11.1419 8.98926 11.6564 9.35524 12.0236 9.82111L12.8691 11.4177L12.9416 11.3507C13.4561 11.0182 13.7138 10.486 13.7138 9.68843C13.4932 9.45587 13.4569 9.22256 13.2733 8.99C13.0527 8.65756 12.5752 8.4891 12.2805 8.22374Z" fill="#00678C"/>
</svg>
