<svg width="41" height="41" viewBox="0 0 41 41" fill="none" xmlns="http://www.w3.org/2000/svg">
<path fill-rule="evenodd" clip-rule="evenodd" d="M24.1598 0C23.8641 0 23.5837 0.0655135 23.3341 0.15415C23.8718 0.516402 24.1713 0.994266 24.3211 1.5415C24.3326 1.61857 24.3518 1.66867 24.3595 1.74189C24.3672 1.81511 24.3825 1.86907 24.3825 1.93458C24.4209 2.87104 24.1406 2.98665 23.937 3.54159C23.7927 3.87682 23.731 4.24201 23.757 4.60626C23.7831 4.9705 23.8962 5.32308 24.0868 5.63418C24.1207 5.71678 24.1632 5.79558 24.2136 5.86925C23.8103 3.17934 26.0454 2.7747 26.4602 1.93843C26.4909 1.16768 25.8841 0.716796 25.4118 0.373813C25.037 0.136688 24.6028 0.0110774 24.1598 0.0115604V0ZM27.5278 0.605037C27.4894 0.847823 27.5163 0.786164 27.5048 0.913338L27.4817 1.19081L27.4049 1.44515C27.3815 1.53146 27.3533 1.61637 27.3204 1.6995L27.2052 1.94229C27.1745 1.98083 27.1514 2.02707 27.1207 2.06946L27.0554 2.1658L26.9018 2.37776C26.8365 2.44327 26.7866 2.5165 26.7098 2.57045C26.633 2.6244 26.5831 2.69762 26.5101 2.75157C26.2874 2.92114 26.0339 3.04831 25.7996 3.21402C25.7228 3.26798 25.646 3.31037 25.5884 3.36817C25.5308 3.42598 25.4502 3.47608 25.3887 3.53774C25.3273 3.5994 25.262 3.66491 25.1967 3.73813C25.1314 3.81135 25.0815 3.87687 25.0431 3.95009L24.8895 4.17361L24.7743 4.41639L24.6898 4.65918L24.613 4.92894C24.6014 4.96748 24.6014 5.02528 24.5899 5.06768C24.5784 5.11007 24.5784 5.15246 24.5669 5.19485L24.5553 5.46461C24.5538 5.52905 24.5577 5.5935 24.5669 5.6573C24.5669 5.74208 24.5784 5.82686 24.5976 5.92706C24.6168 6.02726 24.6283 6.09663 24.6514 6.18141L24.7358 6.43576C24.7589 6.48971 24.7896 6.54366 24.8127 6.58991L22.3779 5.64188L21.1489 5.32202L20.4807 5.16787C19.8432 5.0409 19.1998 4.94572 18.5528 4.8827C17.905 4.81103 17.2537 4.77501 16.6019 4.77479L15.2194 4.82874C14.5695 4.87561 13.9223 4.95406 13.28 5.06382L12.8038 5.1486L11.8514 5.36056L11.3752 5.48773L10.9143 5.68813L10.5687 5.84228L10.2231 6.01184C10.1924 6.0234 10.1693 6.03497 10.1463 6.04267L9.816 6.21224C9.73919 6.24307 9.66238 6.28931 9.60478 6.32014C9.57405 6.34327 9.52797 6.35868 9.50877 6.37409L9.23226 6.52824C9.13625 6.5822 9.05176 6.63615 8.97879 6.68239L8.76757 6.83654L8.53715 7.00611L8.35665 7.16026C8.24144 7.24504 8.18768 7.29899 8.13391 7.34138L7.90349 7.5649L7.69227 7.7653L7.51177 7.95798C7.48873 7.98111 7.45801 7.99652 7.43496 8.0235C7.3812 8.08901 7.31975 8.15067 7.25447 8.21619L6.97028 8.52448L6.39422 9.07557C6.20695 9.24321 6.00942 9.39894 5.80281 9.54187L5.1653 9.94652C4.94885 10.0659 4.72574 10.1727 4.49708 10.2664C4.27434 10.3627 4.03623 10.4475 3.80581 10.5207C3.36033 10.6171 2.90716 10.7982 2.5116 10.829C2.42712 10.829 2.33111 10.8521 2.24278 10.8599L1.97395 10.9254L1.72049 11.0217C1.636 11.0525 1.55151 11.0988 1.46702 11.1373C1.38253 11.1759 1.31341 11.2337 1.2366 11.2915C1.16146 11.3461 1.09083 11.4066 1.02538 11.4726C0.948572 11.5266 0.871765 11.5998 0.81416 11.6653L0.633662 11.8772C0.579896 11.962 0.51845 12.0314 0.480047 12.12C0.441643 12.2087 0.372516 12.2742 0.326432 12.3628L0.211221 12.6403L0.115211 12.9178L0.0614461 13.1721C0.0307231 13.2993 0.0307232 13.4264 0.0230424 13.492C0.0153617 13.5575 0 13.6307 0 13.7039C0 13.7425 8.04741e-08 13.8003 0.0115212 13.8427C0.0230423 13.9197 0.0345634 13.9814 0.0499249 14.043L0.126732 14.2357C0.157455 14.3128 0.20354 14.3745 0.241943 14.4361L0.380197 14.6288L0.560695 14.7984C0.625982 14.8639 0.687427 14.914 0.760394 14.9679C1.01386 15.1915 1.07915 15.2647 1.40558 15.4304C1.45934 15.4612 1.51311 15.4844 1.57455 15.5152C1.62832 15.6693 1.65136 15.7464 1.67056 15.835C1.68977 15.9237 1.72433 16.0162 1.75505 16.0894L1.83954 16.2821L1.99315 16.5673L2.14677 16.7908L2.32727 16.9912C2.39255 17.0567 2.454 17.1068 2.52697 17.1723L2.73819 17.3264C2.81243 17.3789 2.89077 17.4253 2.97245 17.4652C3.04926 17.5037 3.12606 17.55 3.21439 17.5808C3.27968 17.6116 3.35265 17.6347 3.42561 17.6579C3.49858 17.681 3.56387 17.6964 3.60611 17.7118C3.57539 18.2899 3.56771 18.8679 3.64452 19.0221C3.74052 19.234 4.20521 18.5866 4.67373 17.8428C4.60845 18.6136 4.5662 19.4383 4.67373 19.6926C4.78127 19.947 5.42645 19.13 5.97946 18.2128C13.4912 16.4709 20.3425 21.6812 21.0721 29.0341C20.9339 27.8857 19.5245 27.2498 18.8831 27.4078C18.5644 28.194 18.0267 29.2037 17.1549 29.8357C17.2303 29.1253 17.194 28.4075 17.0474 27.7084C16.817 28.6873 16.3562 29.5968 15.734 30.3868C15.2488 30.4199 14.763 30.3324 14.3195 30.1321C13.876 29.9318 13.4887 29.6248 13.1917 29.2384C13.1533 29.2075 13.1379 29.142 13.1072 29.0996L12.9958 28.8376C12.9651 28.7605 12.9421 28.6834 12.9305 28.6141C12.919 28.5447 12.919 28.4599 12.919 28.3828V28.2287C12.9305 28.1516 12.9497 28.0745 12.9728 28.0052L13.0496 27.7817C13.088 27.7046 13.1264 27.6275 13.1763 27.5581C13.3568 27.0494 13.3568 26.6332 13.0227 26.3905C12.9574 26.3519 12.896 26.3134 12.823 26.2825C12.7846 26.271 12.727 26.2517 12.6848 26.244L12.6003 26.2132L12.3775 26.1592C12.3051 26.1386 12.2301 26.1282 12.1548 26.1284C12.0773 26.1154 11.999 26.1076 11.9205 26.1053C11.8668 26.1053 11.813 26.1168 11.7669 26.1168C11.6824 26.1168 11.6133 26.1284 11.5365 26.1477L11.3137 26.1862L11.091 26.2633L10.8798 26.3596L10.6801 26.4675C8.21072 28.0861 9.68158 31.8628 11.3713 32.9649C10.7338 33.0805 10.0887 33.2193 9.91201 33.358C10.346 33.6548 10.8222 33.8898 11.3214 34.1288L13.0381 34.6375C13.9145 34.826 14.8125 34.8935 15.7071 34.8379C20.4001 34.5064 24.2481 30.9263 24.9471 26.2055L25.0124 26.4829L25.1084 27.0764C25.1314 27.1843 25.1391 27.2768 25.1468 27.3616L25.1698 27.6815L25.1929 28.0283V28.1979C25.1929 28.2518 25.2044 28.3135 25.2044 28.3674C25.2044 28.4214 25.1929 28.4946 25.1929 28.5601V28.7143C25.1929 28.7913 25.1813 28.853 25.1813 28.9262C25.1813 28.9648 25.1813 29.011 25.1698 29.065L25.1583 29.2962C25.1468 29.327 25.1468 29.3617 25.1468 29.3925L25.116 29.6353C25.116 29.6661 25.116 29.7008 25.1045 29.7316L25.0661 30.0399V30.0592L25.0008 30.356L24.9355 30.6758L24.7666 31.3309L24.659 31.6701L24.4286 32.2867L24.3019 32.595L24.1483 32.8917C24.1367 32.9226 24.1252 32.9457 24.1175 32.9688C23.4114 34.3881 22.3843 35.622 21.1182 36.572C21.0337 36.626 20.9492 36.6877 20.8647 36.7532C20.8417 36.7763 20.811 36.784 20.7879 36.8071L20.5575 36.9613L20.5882 37.0268H20.5998L21.0452 36.9613H21.0568L21.8825 36.8071C21.9593 36.7956 22.0361 36.7763 22.1129 36.7532L22.2665 36.7223L22.4892 36.6838L22.6812 36.6298C23.7311 36.3729 24.7585 36.0314 25.7535 35.6086C24.0514 37.9361 21.7877 39.7913 19.175 41C20.3982 40.9187 21.6095 40.7081 22.7888 40.3718C27.0593 39.1078 30.65 36.2252 32.8006 32.3445C32.3667 34.7993 31.3912 37.1385 29.9511 39.181C30.9803 38.4989 31.9212 37.7166 32.7814 36.8225C35.1548 34.333 36.714 31.1768 37.2363 27.7855C37.5973 29.4657 37.6971 31.1999 37.5435 32.911C45.1935 22.2053 38.181 11.1065 35.2393 8.1815C35.2009 8.25858 35.1855 8.3819 35.1778 8.51293L35.0703 9.22587L34.8898 9.92725L34.6363 10.6094L34.3176 11.2568L33.9335 11.8618L33.4996 12.4399C33.346 12.6326 33.1693 12.8021 33.0003 12.9717L32.6931 13.2415L32.4512 13.4534C32.2627 13.6041 32.0651 13.7431 31.8597 13.8696L31.2338 14.2319L30.5655 14.5286C30.3401 14.6142 30.1107 14.6888 29.8781 14.7521L29.1676 14.9063C28.9257 14.9448 28.6799 14.9718 28.4456 14.9911L27.9387 15.0142C27.6968 15.0142 27.451 14.9911 27.2167 14.9757C26.974 14.9577 26.7327 14.9229 26.4947 14.8716C26.2528 14.8331 26.0185 14.7637 25.7843 14.6905H25.7727L26.4717 14.6057L27.1822 14.4515L27.8734 14.228C28.1039 14.1432 28.3343 14.0353 28.5417 13.9313C28.7597 13.8249 28.9725 13.7079 29.1792 13.5806L29.7706 13.1952C29.9608 13.0474 30.1416 12.8878 30.3121 12.7174C30.4891 12.5546 30.6559 12.3808 30.8113 12.1971L31.2568 11.619C31.2798 11.5882 31.2952 11.542 31.3221 11.5111L31.6293 11.0024L31.9481 10.355L32.2015 9.6729C32.2783 9.44938 32.3283 9.21045 32.382 8.97923L32.4896 8.26628L32.528 7.54178L32.5088 7.03309L32.4243 6.32014L32.2707 5.6072L32.0402 4.92509C31.9557 4.70157 31.8482 4.47805 31.7445 4.26995L31.3835 3.64179L30.9995 3.05602L30.5118 2.5165L30.2353 2.24673L28.7644 1.20622C28.6876 1.16768 28.6261 1.12915 28.5532 1.09832C28.2075 0.8748 27.8734 0.759188 27.547 0.651283L27.5278 0.605037Z" fill="#EA2845"/>
</svg>
