<svg width="50" height="41" viewBox="0 0 50 41" fill="none" xmlns="http://www.w3.org/2000/svg">
<path d="M25.0007 24.5866C27.5512 24.5866 29.6187 22.7384 29.6187 20.4585C29.6187 18.1786 27.5512 16.3303 25.0007 16.3303C22.4503 16.3303 20.3828 18.1786 20.3828 20.4585C20.3828 22.7384 22.4503 24.5866 25.0007 24.5866Z" fill="#00D8FF"/>
<path fill-rule="evenodd" clip-rule="evenodd" d="M25.3403 11.7568C33.2138 11.8047 41.8042 12.3182 47.7008 17.0189C47.8741 17.1572 48.0412 17.301 48.2041 17.4494C49.5953 18.717 50.3223 20.7635 49.1993 22.4478C46.8954 25.9057 41.7433 27.4139 36.7552 28.3423C29.2951 29.7306 21.4947 29.7417 14.0378 28.5193C9.74672 27.8149 5.35875 26.5806 2.30935 23.9984C1.12238 22.9935 0.10763 21.6716 0.266443 20.2003C0.524255 17.82 3.07866 16.2924 5.22882 15.2581C11.2008 12.3855 18.4773 11.743 25.3403 11.7568ZM24.7689 12.8382C17.3192 12.8833 9.25585 13.3083 3.50354 17.5665C3.30244 17.7149 3.10857 17.8707 2.92191 18.0339C2.80125 18.1389 2.68472 18.2487 2.57232 18.3611C1.56272 19.3752 1.21519 21.0041 2.16807 22.2219C3.12713 23.4471 4.58326 24.3312 6.08269 25.0521C11.6906 27.7477 18.3174 28.2261 24.7782 28.2464C31.3194 28.2676 38.0648 27.7347 43.8429 25.0641C46.1447 23.9993 48.7352 22.4358 48.6434 20.4224C48.5588 18.575 46.5438 17.4337 45.0351 16.6188C44.6267 16.3984 44.207 16.1947 43.7811 16.003C38.0453 13.4337 31.3236 12.8253 24.7689 12.8382Z" fill="#00D8FF"/>
<path fill-rule="evenodd" clip-rule="evenodd" d="M35.4309 0.866768C38.3112 0.932221 39.8034 4.02788 40.0004 6.31413C40.0396 6.76861 40.054 7.22494 40.0478 7.68127C40.0416 8.17539 40.0117 8.66952 39.9632 9.1618C39.3558 15.2572 36.2425 21.0623 32.5764 26.423C28.9907 31.6666 24.6182 36.8955 18.67 39.3255C16.7034 40.1294 14.3645 40.6254 12.6238 39.7284C10.2375 38.4995 9.97655 35.6251 10.0209 33.4449C10.0322 32.9093 10.0714 32.3737 10.1333 31.8399C11.0501 23.9487 15.5247 16.4732 21.1244 10.033C24.3914 6.27541 28.2781 2.54827 33.1199 1.19864C33.882 0.985689 34.4873 0.856627 35.4309 0.866768ZM35.2927 1.94721C31.9112 1.99514 28.8752 4.2353 26.1868 6.56303C19.1186 12.6815 13.9097 20.8189 11.8142 29.3527C11.6523 30.0137 11.5162 30.6793 11.4162 31.3495C11.3388 31.8685 11.2821 32.3903 11.2522 32.9139C11.2285 33.3306 11.2202 33.7482 11.2347 34.1658C11.245 34.4922 11.2687 34.8185 11.3089 35.143C11.3388 35.391 11.3791 35.638 11.4296 35.8833C11.4677 36.0649 11.5121 36.2456 11.5636 36.4253C11.6059 36.571 11.6534 36.7157 11.707 36.8595C12.1288 37.9962 13.2157 39.0822 14.6749 39.1181C18.0791 39.2011 21.2842 36.9821 24.0552 34.5705C28.9196 30.3382 32.5444 25.0199 35.3762 19.4296C37.6615 14.9161 39.7518 10.0099 38.5845 5.04194C38.5401 4.85388 38.4886 4.66766 38.4298 4.48328C38.3813 4.33302 38.3267 4.1846 38.2668 4.03802C37.8131 2.93269 36.7457 1.94444 35.2927 1.94721Z" fill="#00D8FF"/>
<path fill-rule="evenodd" clip-rule="evenodd" d="M14.8003 0.907308C18.4757 0.970918 21.7767 3.20093 24.7075 5.69829C30.0556 10.2551 34.0001 16.0519 36.9928 22.1528C39.3111 26.8793 41.4437 32.1847 39.5483 37.172C38.9512 38.7438 37.4404 40.1819 35.4264 40.2188C31.7335 40.2852 28.3107 37.8846 25.3407 35.3006C17.89 28.8162 12.3583 20.2556 10.4629 11.177C10.3268 10.528 10.2185 9.87346 10.1442 9.21617C10.0834 8.67964 10.0452 8.14034 10.0349 7.60104C10.0267 7.16592 10.037 6.73079 10.071 6.29751C10.0937 6.00804 10.1267 5.72042 10.171 5.43371C10.2133 5.16453 10.267 4.89626 10.334 4.63076C10.3783 4.45468 10.4278 4.28045 10.4845 4.10714C11.0404 2.40812 12.4862 0.894402 14.8003 0.907308ZM14.6611 1.98867C12.5089 2.03107 11.524 4.29981 11.326 5.89189C11.2858 6.21823 11.2611 6.54734 11.2497 6.87645C11.2353 7.29682 11.2415 7.71812 11.2652 8.1385C11.6035 14.2219 14.6456 20.1035 18.3169 25.4891C21.7736 30.5594 25.9481 35.6094 31.6901 38.2054C33.3484 38.9549 35.3635 39.544 36.7959 38.836C38.5923 37.9473 38.813 35.8298 38.9089 34.2515C38.9347 33.8219 38.9378 33.3905 38.9223 32.96C38.9037 32.4198 38.8563 31.8805 38.7851 31.3439C38.1231 26.3317 35.6398 21.5887 32.7874 17.1065C29.2378 11.531 24.889 5.97393 18.7345 3.07095C17.4599 2.46989 16.0801 1.97853 14.6611 1.98867Z" fill="#00D8FF"/>
</svg>
